<svg id="Capa_1" enable-background="new 0 0 512 512" height="512" viewBox="0 0 512 512" width="512" xmlns="http://www.w3.org/2000/svg"><g><g><path d="m450.036 4.996c-18.82-10.866-42.908-3.363-52.228 16.269l-39.216 82.603c4.771 12.079 7.393 25.233 7.393 38.987 0 .752-.013 1.502-.029 2.251 9.381 3.754 18.107 8.804 25.956 14.93l70.149-101.674c12.341-17.888 6.795-42.5-12.025-53.366z" fill="#fe99a0"/><path d="m450.036 4.996c-18.82-10.866-42.908-3.363-52.228 16.269l-38.621 81.348c5.024 12.43 7.797 26.011 7.797 40.242 0 .52-.012 1.037-.02 1.555.709.288 1.415.583 2.116.885l49.928-105.165c8.301-17.484 28.312-25.335 45.886-19.171-3.124-6.451-8.14-12.085-14.858-15.963z" fill="#fd8087"/><path d="m179.883 124.892c31.808 0 60.398 14.027 79.922 36.214 18.268-14.735 41.482-23.573 66.725-23.573 14.302 0 27.951 2.842 40.421 7.979.021-.883.034-1.769.034-2.658 0-59.347-48.11-107.457-107.457-107.457-54.416 0-99.378 40.45-106.475 92.921 8.574-2.234 17.565-3.426 26.83-3.426z" fill="#fee903"/><path d="m179.883 123.891c5.716 0 11.327.451 16.801 1.311 7.256-43.886 41.084-78.805 84.418-87.637-6.97-1.421-14.185-2.167-21.574-2.167-54.04 0-98.756 39.892-106.322 91.834 8.529-2.18 17.468-3.341 26.677-3.341z" fill="#f4d902"/><path d="m259.805 161.106c8.122-6.552 17.221-11.936 27.044-15.896l30.888-92.692c-16.774-10.831-36.757-17.121-58.209-17.121-1.001 0-1.999.016-2.994.043l-32.939 98.844c13.916 6.292 26.243 15.495 36.21 26.822z" fill="#fe99a0"/><g><g><path d="m283.769 258.896c2.326-8.793 3.571-18.025 3.571-27.548 0-59.347-48.11-107.457-107.457-107.457s-107.457 48.11-107.457 107.457c0 9.524 1.245 18.756 3.571 27.548z" fill="#a2e62e"/></g><g><path d="m129.514 257.896c-2.159-8.492-3.316-17.384-3.316-26.548 0-50.063 34.235-92.129 80.571-104.065-8.593-2.214-17.602-3.391-26.885-3.391-59.347 0-107.457 48.11-107.457 107.457 0 9.163 1.15 18.057 3.308 26.548h53.779z" fill="#97d729"/></g><g><path d="m432.953 258.896c.676-4.873 1.034-9.847 1.034-14.906 0-59.347-48.11-107.457-107.457-107.457s-107.457 48.11-107.457 107.457c0 5.059.358 10.034 1.034 14.906z" fill="#d88a55"/></g><g><path d="m273.77 257.896c-.588-4.552-.893-9.194-.893-13.906 0-50.057 34.227-92.119 80.555-104.061-8.598-2.216-17.612-3.396-26.902-3.396-59.347 0-107.457 48.11-107.457 107.457 0 4.713.306 9.354.894 13.906z" fill="#c57a44"/></g><g><circle cx="382.197" cy="242.5" fill="#fed2a4" r="7.5"/></g><g><circle cx="257.545" cy="242.5" fill="#fed2a4" r="7.5"/></g></g><g><path d="m115.409 473.169v33.68c0 2.845 2.306 5.151 5.151 5.151h265.293c2.845 0 5.151-2.306 5.151-5.151v-33.68z" fill="#def5fc"/></g><g><path d="m158.626 506.849v-33.68h-43.217v33.68c0 2.845 2.306 5.151 5.151 5.151h43.217c-2.845 0-5.151-2.306-5.151-5.151z" fill="#c8effe"/></g><g><path d="m72.128 296.213 28.598 172.694c.506 3.053 3.146 5.292 6.24 5.292h292.48c3.095 0 5.735-2.239 6.24-5.292l28.598-172.694z" fill="#fe99a0"/></g><g><path d="m143.93 468.907-28.598-172.694h-43.204l28.598 172.694c.506 3.053 3.146 5.292 6.24 5.292h43.204c-3.094 0-5.734-2.239-6.24-5.292z" fill="#fd8087"/></g><path d="m308.457 412.598c-9.403 19.5-29.359 32.955-52.457 32.955s-43.054-13.455-52.457-32.955h-112.142l9.325 56.313c.505 3.051 3.144 5.288 6.236 5.288h292.488c3.092 0 5.731-2.237 6.236-5.288l9.325-56.313z" fill="#08a9f1"/><g><path d="m100.726 468.908c.506 3.053 3.146 5.291 6.24 5.292h43.204c-3.094-.001-5.734-2.239-6.24-5.292l-9.325-56.309h-43.204z" fill="#0290cf"/></g><g><path d="m443.39 297.243h-380.367c-10.865 0-19.673-8.808-19.673-19.673 0-10.865 8.808-19.673 19.673-19.673h380.367c10.865 0 19.673 8.808 19.673 19.673 0 10.865-8.808 19.673-19.673 19.673z" fill="#f1faff"/></g><g><path d="m110.744 277.57c0-10.865 8.808-19.673 19.673-19.673h-67.394c-10.865 0-19.673 8.808-19.673 19.673s8.808 19.673 19.673 19.673h67.395c-10.865 0-19.674-8.808-19.674-19.673z" fill="#def5fc"/></g><g><path d="m351.476 198.393c-6.426 0-12.47-2.505-17.019-7.053-2.929-2.929-2.929-7.678 0-10.606 2.929-2.929 7.678-2.929 10.606 0 1.715 1.715 3.993 2.66 6.412 2.66 2.42 0 4.697-.944 6.412-2.66 2.93-2.929 7.677-2.929 10.607 0 2.929 2.929 2.929 7.678 0 10.607-4.547 4.548-10.591 7.052-17.018 7.052z" fill="#f6a96c"/></g><g><path d="m287.203 224.727c-6.164 0-12.327-2.346-17.019-7.038-2.929-2.929-2.929-7.678 0-10.606 2.929-2.929 7.678-2.929 10.606 0 3.536 3.535 9.289 3.536 12.825 0 2.929-2.929 7.678-2.929 10.606 0 2.929 2.929 2.929 7.678 0 10.606-4.692 4.692-10.855 7.038-17.018 7.038z" fill="#f6a96c"/></g><g><path d="m162.184 183.224h-11.377c-4.142 0-7.5-3.358-7.5-7.5s3.358-7.5 7.5-7.5h11.377c4.142 0 7.5 3.358 7.5 7.5s-3.358 7.5-7.5 7.5z" fill="#81b823"/></g><g><path d="m184.94 224.942h-11.378c-4.142 0-7.5-3.358-7.5-7.5s3.358-7.5 7.5-7.5h11.378c4.142 0 7.5 3.358 7.5 7.5s-3.358 7.5-7.5 7.5z" fill="#81b823"/></g><g><path d="m121.73 223.678h-11.378c-4.142 0-7.5-3.358-7.5-7.5s3.358-7.5 7.5-7.5h11.378c4.142 0 7.5 3.358 7.5 7.5s-3.358 7.5-7.5 7.5z" fill="#81b823"/></g><g><circle cx="343.05" cy="221.5" fill="#fed2a4" r="7.5"/></g><g><circle cx="394.559" cy="202.946" fill="#fed2a4" r="7.5"/></g><g><circle cx="301.843" cy="172.04" fill="#fed2a4" r="7.5"/></g><g><g><circle cx="256" cy="387.348" fill="#fff" r="58.205"/></g><g><path d="m229.215 387.348c0-26.7 17.984-49.185 42.495-56.042-5-1.399-10.264-2.163-15.71-2.163-32.146 0-58.205 26.059-58.205 58.205s26.059 58.205 58.205 58.205c5.446 0 10.711-.764 15.71-2.163-24.51-6.857-42.495-29.342-42.495-56.042z" fill="#f1faff"/></g><g><path d="m256 453.053c-36.23 0-65.705-29.475-65.705-65.705s29.475-65.705 65.705-65.705 65.705 29.475 65.705 65.705-29.475 65.705-65.705 65.705zm0-116.41c-27.959 0-50.705 22.746-50.705 50.705s22.746 50.705 50.705 50.705 50.705-22.746 50.705-50.705-22.746-50.705-50.705-50.705z" fill="#fd8087"/></g><g><path d="m277.119 383.001h-42.237c-4.142 0-7.5-3.358-7.5-7.5s3.358-7.5 7.5-7.5h42.237c4.142 0 7.5 3.358 7.5 7.5s-3.358 7.5-7.5 7.5z" fill="#fd8087"/></g><g><path d="m267.332 411.846h-22.664c-4.142 0-7.5-3.358-7.5-7.5s3.358-7.5 7.5-7.5h22.664c4.142 0 7.5 3.358 7.5 7.5s-3.358 7.5-7.5 7.5z" fill="#fd8087"/></g></g><g><path d="m215.753 173.952h-11.377c-4.142 0-7.5-3.358-7.5-7.5s3.358-7.5 7.5-7.5h11.377c4.142 0 7.5 3.358 7.5 7.5s-3.358 7.5-7.5 7.5z" fill="#81b823"/></g></g></g></svg>